<svg xmlns="http://www.w3.org/2000/svg" version="1.1" xmlns:xlink="http://www.w3.org/1999/xlink" xmlns:svgjs="http://svgjs.dev/svgjs" width="1000" height="267" viewBox="0 0 1000 267"><g transform="matrix(1,0,0,1,-0.6060406344057583,-0.2831765649063982)"><svg viewBox="0 0 396 106" data-background-color="#ffffff" preserveAspectRatio="xMidYMid meet" height="267" width="1000" xmlns="http://www.w3.org/2000/svg" xmlns:xlink="http://www.w3.org/1999/xlink"><g id="tight-bounds" transform="matrix(1,0,0,1,0.23999210929184756,0.11242215685422252)"><svg viewBox="0 0 395.52 105.77515568629158" height="105.77515568629158" width="395.52"><g><svg viewBox="0 0 580.7711084868085 155.31744138929085" height="105.77515568629158" width="395.52"><g><rect width="6.452315806193921" height="155.31744138929085" x="161.9079136068085" y="0" fill="#fdbb30" opacity="1" stroke-width="0" stroke="transparent" fill-opacity="1" class="rect-o-0" data-fill-palette-color="primary" rx="1%" id="o-0" data-palette-color="#fdbb30"></rect></g><g transform="matrix(1,0,0,1,185.2511084868085,0.38636179450071495)"><svg viewBox="0 0 395.52 154.54471780028942" height="154.54471780028942" width="395.52"><g id="textblocktransform"><svg viewBox="0 0 395.52 154.54471780028942" height="154.54471780028942" width="395.52" id="textblock"><g><svg viewBox="0 0 395.52 154.54471780028942" height="154.54471780028942" width="395.52"><g transform="matrix(1,0,0,1,0,0)"><svg width="395.52" viewBox="3.450000047683716 -36.75 207.29998779296875 77.25000762939453" height="154.54471780028942" data-palette-color="#fdbb30"><svg></svg><svg></svg><g class="undefined-text-0" data-fill-palette-color="primary" id="text-0"><path xmlns="http://www.w3.org/2000/svg" d="M21.05-19.25v0c-0.6 0-1.033-0.133-1.3-0.4-0.267-0.267-0.683-0.833-1.25-1.7v0l-6.1-9.3c-0.2-0.333-0.433-0.56-0.7-0.68-0.267-0.113-0.533-0.17-0.8-0.17v0h-0.85c-0.433 0-0.757 0.123-0.97 0.37-0.22 0.253-0.33 0.647-0.33 1.18v0 25.45h0.5v-25.45c0-0.267 0.05-0.51 0.15-0.73 0.1-0.213 0.317-0.32 0.65-0.32v0h0.75c0.233 0 0.443 0.033 0.63 0.1 0.18 0.067 0.37 0.267 0.57 0.6v0l6.1 9.2c0.6 0.9 1.06 1.517 1.38 1.85 0.313 0.333 0.837 0.5 1.57 0.5v0c0.733 0 1.26-0.167 1.58-0.5 0.313-0.333 0.77-0.95 1.37-1.85v0l6.1-9.2c0.2-0.333 0.383-0.533 0.55-0.6 0.167-0.067 0.367-0.1 0.6-0.1v0h0.75c0.333 0 0.56 0.107 0.68 0.32 0.113 0.22 0.17 0.463 0.17 0.73v0 25.45h0.5v-25.45c0-0.533-0.11-0.927-0.33-1.18-0.213-0.247-0.553-0.37-1.02-0.37v0h-0.85c-0.267 0-0.523 0.057-0.77 0.17-0.253 0.12-0.48 0.347-0.68 0.68v0l-6.1 9.3c-0.567 0.867-0.983 1.433-1.25 1.7-0.267 0.267-0.7 0.4-1.3 0.4zM12.7 0v0h-7.45c-0.633 0-1.09-0.143-1.37-0.43-0.287-0.28-0.43-0.737-0.43-1.37v0-32.4c0-0.633 0.143-1.093 0.43-1.38 0.28-0.28 0.737-0.42 1.37-0.42v0h8.05c0.533 0 0.977 0.117 1.33 0.35 0.347 0.233 0.67 0.617 0.97 1.15v0l4.5 8.15c0.167 0.3 0.31 0.517 0.43 0.65 0.113 0.133 0.27 0.2 0.47 0.2v0h0.45c0.2 0 0.36-0.067 0.48-0.2 0.113-0.133 0.253-0.35 0.42-0.65v0l4.45-8.15c0.3-0.533 0.627-0.917 0.98-1.15 0.347-0.233 0.787-0.35 1.32-0.35v0h8.1c0.633 0 1.093 0.14 1.38 0.42 0.28 0.287 0.42 0.747 0.42 1.38v0 32.4c0 0.633-0.14 1.09-0.42 1.37-0.287 0.287-0.747 0.43-1.38 0.43v0h-7.7c-0.633 0-1.09-0.143-1.37-0.43-0.287-0.28-0.43-0.737-0.43-1.37v0-17.6l-2.95 5.45c-0.3 0.567-0.657 0.973-1.07 1.22-0.42 0.253-0.947 0.38-1.58 0.38v0h-2c-0.633 0-1.157-0.127-1.57-0.38-0.42-0.247-0.78-0.653-1.08-1.22v0l-2.95-5.45v17.6c0 0.633-0.14 1.09-0.42 1.37-0.287 0.287-0.747 0.43-1.38 0.43zM76.4-26.5v17.05c0 1.533-0.227 2.923-0.68 4.17-0.447 1.253-1.243 2.32-2.39 3.2-1.153 0.887-2.737 1.58-4.75 2.08-2.02 0.5-4.58 0.75-7.68 0.75v0c-3.1 0-5.667-0.25-7.7-0.75-2.033-0.5-3.623-1.193-4.77-2.08-1.153-0.88-1.953-1.947-2.4-3.2-0.453-1.247-0.68-2.637-0.68-4.17v0-17.05c0-1.533 0.227-2.927 0.68-4.18 0.447-1.247 1.247-2.32 2.4-3.22 1.147-0.9 2.737-1.6 4.77-2.1 2.033-0.5 4.6-0.75 7.7-0.75v0c3.1 0 5.66 0.25 7.68 0.75 2.013 0.5 3.597 1.2 4.75 2.1 1.147 0.9 1.943 1.973 2.39 3.22 0.453 1.253 0.68 2.647 0.68 4.18zM70.95-10.6v0-14.75c0-2-0.717-3.627-2.15-4.88-1.433-1.247-4.1-1.87-8-1.87v0c-3.9 0-6.55 0.623-7.95 1.87-1.4 1.253-2.1 2.88-2.1 4.88v0 14.75c0 2 0.7 3.623 2.1 4.87 1.4 1.253 4.05 1.88 7.95 1.88v0c3.9 0 6.567-0.627 8-1.88 1.433-1.247 2.15-2.87 2.15-4.87zM51.25-10.6v0-14.75c0-1.867 0.667-3.377 2-4.53 1.333-1.147 3.85-1.72 7.55-1.72v0c3.7 0 6.233 0.573 7.6 1.72 1.367 1.153 2.05 2.663 2.05 4.53v0 14.75c0 1.867-0.683 3.373-2.05 4.52-1.367 1.153-3.9 1.73-7.6 1.73v0c-3.7 0-6.217-0.577-7.55-1.73-1.333-1.147-2-2.653-2-4.52zM56.7-24.7v13.45c0 0.667 0.25 1.223 0.75 1.67 0.5 0.453 1.65 0.68 3.45 0.68v0c1.8 0 2.95-0.227 3.45-0.68 0.5-0.447 0.75-1.003 0.75-1.67v0-13.45c0-0.633-0.25-1.177-0.75-1.63-0.5-0.447-1.65-0.67-3.45-0.67v0c-1.8 0-2.95 0.223-3.45 0.67-0.5 0.453-0.75 0.997-0.75 1.63zM104.05 0v0h-13c-0.633 0-1.157-0.117-1.57-0.35-0.42-0.233-0.747-0.667-0.98-1.3v0l-4.9-12.25c-0.3-0.733-0.55-1.377-0.75-1.93-0.2-0.547-0.367-1.07-0.5-1.57-0.133-0.5-0.223-1.027-0.27-1.58-0.053-0.547-0.08-1.22-0.08-2.02v0-13.2c0-0.633 0.143-1.093 0.43-1.38 0.28-0.28 0.737-0.42 1.37-0.42v0h7.95c0.633 0 1.117 0.14 1.45 0.42 0.333 0.287 0.5 0.747 0.5 1.38v0 13.8c0 0.333 0.033 0.667 0.1 1 0.067 0.333 0.167 0.683 0.3 1.05v0l2.35 7c0.1 0.333 0.217 0.557 0.35 0.67 0.133 0.12 0.333 0.18 0.6 0.18v0h0.55c0.267 0 0.467-0.06 0.6-0.18 0.133-0.113 0.25-0.337 0.35-0.67v0l2.35-7.05c0.133-0.367 0.233-0.717 0.3-1.05 0.067-0.333 0.1-0.667 0.1-1v0-13.75c0-0.633 0.143-1.093 0.43-1.38 0.28-0.28 0.737-0.42 1.37-0.42v0h7.85c0.633 0 1.093 0.14 1.38 0.42 0.28 0.287 0.42 0.747 0.42 1.38v0 13.2c0 0.8-0.023 1.473-0.07 2.02-0.053 0.553-0.147 1.08-0.28 1.58-0.133 0.5-0.3 1.023-0.5 1.57-0.2 0.553-0.45 1.197-0.75 1.93v0l-4.9 12.25c-0.233 0.633-0.557 1.067-0.97 1.3-0.42 0.233-0.947 0.35-1.58 0.35zM88.15-31.5h-0.5v10.8c0 0.933 0.06 1.79 0.18 2.57 0.113 0.787 0.32 1.547 0.62 2.28v0l3.3 8c0.4 0.967 0.85 1.767 1.35 2.4 0.5 0.633 1.267 0.95 2.3 0.95v0h4.4c1.033 0 1.8-0.317 2.3-0.95 0.5-0.633 0.95-1.433 1.35-2.4v0l3.3-8c0.3-0.733 0.51-1.493 0.63-2.28 0.113-0.78 0.17-1.637 0.17-2.57v0-10.8h-0.5v10.8c0 0.867-0.067 1.69-0.2 2.47-0.133 0.787-0.333 1.513-0.6 2.18v0l-3.3 8c-0.333 0.867-0.707 1.59-1.12 2.17-0.42 0.587-1.097 0.88-2.03 0.88v0h-4.4c-0.933 0-1.607-0.293-2.02-0.88-0.42-0.58-0.797-1.303-1.13-2.17v0l-3.3-8c-0.267-0.667-0.467-1.393-0.6-2.18-0.133-0.78-0.2-1.603-0.2-2.47v0zM141.55 0h-21.3c-0.633 0-1.09-0.143-1.37-0.43-0.287-0.28-0.43-0.737-0.43-1.37v0-5.95c0-0.633 0.143-1.093 0.43-1.38 0.28-0.28 0.737-0.42 1.37-0.42v0h4.95v-16.8h-4.95c-0.633 0-1.09-0.143-1.37-0.43-0.287-0.28-0.43-0.737-0.43-1.37v0-6.05c0-0.633 0.143-1.093 0.43-1.38 0.28-0.28 0.737-0.42 1.37-0.42v0h21.3c0.633 0 1.093 0.14 1.38 0.42 0.28 0.287 0.42 0.747 0.42 1.38v0 6.05c0 0.633-0.14 1.09-0.42 1.37-0.287 0.287-0.747 0.43-1.38 0.43v0h-4.85v16.8h4.85c0.633 0 1.093 0.14 1.38 0.42 0.28 0.287 0.42 0.747 0.42 1.38v0 5.95c0 0.633-0.14 1.09-0.42 1.37-0.287 0.287-0.747 0.43-1.38 0.43zM122.95-4.5h15.9v-0.5h-7.65v-26h7.65v-0.5h-15.9v0.5h7.75v26h-7.75zM174.5 0v0h-23.2c-0.633 0-1.09-0.143-1.37-0.43-0.287-0.28-0.43-0.737-0.43-1.37v0-32.4c0-0.633 0.143-1.093 0.43-1.38 0.28-0.28 0.737-0.42 1.37-0.42v0h23.2c0.633 0 1.093 0.14 1.38 0.42 0.28 0.287 0.42 0.747 0.42 1.38v0 5.85c0 0.633-0.14 1.09-0.42 1.37-0.287 0.287-0.747 0.43-1.38 0.43v0h-13.8v3.85h9.75c0.633 0 1.093 0.14 1.38 0.42 0.28 0.287 0.42 0.747 0.42 1.38v0 5.35c0 0.633-0.14 1.09-0.42 1.37-0.287 0.287-0.747 0.43-1.38 0.43v0h-9.75v4.3h13.8c0.633 0 1.093 0.14 1.38 0.42 0.28 0.287 0.42 0.747 0.42 1.38v0 5.85c0 0.633-0.14 1.09-0.42 1.37-0.287 0.287-0.747 0.43-1.38 0.43zM171.8-4.5v-0.5h-16.35v-12.95h12.3v-0.5h-12.3v-12.55h16.35v-0.5h-16.85v27z" fill="#fdbb30" fill-rule="nonzero" stroke="none" stroke-width="1" stroke-linecap="butt" stroke-linejoin="miter" stroke-miterlimit="10" stroke-dasharray="" stroke-dashoffset="0" font-family="none" font-weight="none" font-size="none" text-anchor="none" style="mix-blend-mode: normal" data-fill-palette-color="primary" opacity="1"></path><path xmlns="http://www.w3.org/2000/svg" d="M21.05 21.25v0c-0.6 0-1.033-0.133-1.3-0.4-0.267-0.267-0.683-0.833-1.25-1.7v0l-6.1-9.3c-0.2-0.333-0.433-0.56-0.7-0.68-0.267-0.113-0.533-0.17-0.8-0.17v0h-0.85c-0.433 0-0.757 0.123-0.97 0.37-0.22 0.253-0.33 0.647-0.33 1.18v0 25.45h0.5v-25.45c0-0.267 0.05-0.51 0.15-0.73 0.1-0.213 0.317-0.32 0.65-0.32v0h0.75c0.233 0 0.443 0.033 0.63 0.1 0.18 0.067 0.37 0.267 0.57 0.6v0l6.1 9.2c0.6 0.9 1.06 1.517 1.38 1.85 0.313 0.333 0.837 0.5 1.57 0.5v0c0.733 0 1.26-0.167 1.58-0.5 0.313-0.333 0.77-0.95 1.37-1.85v0l6.1-9.2c0.2-0.333 0.383-0.533 0.55-0.6 0.167-0.067 0.367-0.1 0.6-0.1v0h0.75c0.333 0 0.56 0.107 0.68 0.32 0.113 0.22 0.17 0.463 0.17 0.73v0 25.45h0.5v-25.45c0-0.533-0.11-0.927-0.33-1.18-0.213-0.247-0.553-0.37-1.02-0.37v0h-0.85c-0.267 0-0.523 0.057-0.77 0.17-0.253 0.12-0.48 0.347-0.68 0.68v0l-6.1 9.3c-0.567 0.867-0.983 1.433-1.25 1.7-0.267 0.267-0.7 0.4-1.3 0.4zM12.7 40.5v0h-7.45c-0.633 0-1.09-0.143-1.37-0.43-0.287-0.28-0.43-0.737-0.43-1.37v0-32.4c0-0.633 0.143-1.093 0.43-1.38 0.28-0.28 0.737-0.42 1.37-0.42v0h8.05c0.533 0 0.977 0.117 1.33 0.35 0.347 0.233 0.67 0.617 0.97 1.15v0l4.5 8.15c0.167 0.3 0.31 0.517 0.43 0.65 0.113 0.133 0.27 0.2 0.47 0.2v0h0.45c0.2 0 0.36-0.067 0.48-0.2 0.113-0.133 0.253-0.35 0.42-0.65v0l4.45-8.15c0.3-0.533 0.627-0.917 0.98-1.15 0.347-0.233 0.787-0.35 1.32-0.35v0h8.1c0.633 0 1.093 0.14 1.38 0.42 0.28 0.287 0.42 0.747 0.42 1.38v0 32.4c0 0.633-0.14 1.09-0.42 1.37-0.287 0.287-0.747 0.43-1.38 0.43v0h-7.7c-0.633 0-1.09-0.143-1.37-0.43-0.287-0.28-0.43-0.737-0.43-1.37v0-17.6l-2.95 5.45c-0.3 0.567-0.657 0.973-1.07 1.22-0.42 0.253-0.947 0.38-1.58 0.38v0h-2c-0.633 0-1.157-0.127-1.57-0.38-0.42-0.247-0.78-0.653-1.08-1.22v0l-2.95-5.45v17.6c0 0.633-0.14 1.09-0.42 1.37-0.287 0.287-0.747 0.43-1.38 0.43zM68.2 40.5h-21.3c-0.633 0-1.09-0.143-1.37-0.43-0.287-0.28-0.43-0.737-0.43-1.37v0-5.95c0-0.633 0.143-1.093 0.43-1.38 0.28-0.28 0.737-0.42 1.37-0.42v0h4.95v-16.8h-4.95c-0.633 0-1.09-0.143-1.37-0.43-0.287-0.28-0.43-0.737-0.43-1.37v0-6.05c0-0.633 0.143-1.093 0.43-1.38 0.28-0.28 0.737-0.42 1.37-0.42v0h21.3c0.633 0 1.093 0.14 1.38 0.42 0.28 0.287 0.42 0.747 0.42 1.38v0 6.05c0 0.633-0.14 1.09-0.42 1.37-0.287 0.287-0.747 0.43-1.38 0.43v0h-4.85v16.8h4.85c0.633 0 1.093 0.14 1.38 0.42 0.28 0.287 0.42 0.747 0.42 1.38v0 5.95c0 0.633-0.14 1.09-0.42 1.37-0.287 0.287-0.747 0.43-1.38 0.43zM49.6 36h15.9v-0.5h-7.65v-26h7.65v-0.5h-15.9v0.5h7.75v26h-7.75zM101.15 30.1l-18.4-20.7c-0.167-0.167-0.3-0.283-0.4-0.35-0.1-0.067-0.217-0.1-0.35-0.1v0c-0.133 0-0.267 0.05-0.4 0.15-0.133 0.1-0.2 0.25-0.2 0.45v0 26.45h0.5v-26.35c0-0.033 0.007-0.067 0.02-0.1 0.02-0.033 0.047-0.05 0.08-0.05v0c0.033 0 0.077 0.017 0.13 0.05 0.047 0.033 0.087 0.067 0.12 0.1v0l18.9 21.2v5.15h0.5v-27h-0.5zM85.45 40.5v0h-7.5c-0.633 0-1.09-0.143-1.37-0.43-0.287-0.28-0.43-0.737-0.43-1.37v0-32.4c0-0.633 0.143-1.093 0.43-1.38 0.28-0.28 0.737-0.42 1.37-0.42v0h5.2c0.633 0 1.177 0.1 1.63 0.3 0.447 0.2 0.887 0.55 1.32 1.05v0l9.7 11.1v-10.65c0-0.633 0.143-1.093 0.43-1.38 0.28-0.28 0.737-0.42 1.37-0.42v0h7.5c0.633 0 1.09 0.14 1.37 0.42 0.287 0.287 0.43 0.747 0.43 1.38v0 32.4c0 0.633-0.143 1.09-0.43 1.37-0.28 0.287-0.737 0.43-1.37 0.43v0h-7.5c-0.633 0-1.09-0.143-1.37-0.43-0.287-0.28-0.43-0.737-0.43-1.37v0-6.15l-8.55-10.35v16.5c0 0.633-0.14 1.09-0.42 1.37-0.287 0.287-0.747 0.43-1.38 0.43zM141.3 40.5v0h-15.75c-4.167 0-7.26-0.833-9.28-2.5-2.013-1.667-3.02-4.233-3.02-7.7v0-15.6c0-3.467 1.007-6.033 3.02-7.7 2.02-1.667 5.113-2.5 9.28-2.5v0h12.5c0.633 0 1.093 0.14 1.38 0.42 0.28 0.287 0.42 0.747 0.42 1.38v0 6.05c0 0.633-0.14 1.09-0.42 1.37-0.287 0.287-0.747 0.43-1.38 0.43v0h-10.4c-1.033 0-1.8 0.207-2.3 0.62-0.5 0.42-0.75 1.047-0.75 1.88v0 11.95c0 0.833 0.19 1.45 0.57 1.85 0.387 0.4 0.963 0.6 1.73 0.6v0h4.85v-7.8c0-0.633 0.143-1.093 0.43-1.38 0.28-0.28 0.737-0.42 1.37-0.42v0h7.75c0.633 0 1.093 0.14 1.38 0.42 0.28 0.287 0.42 0.747 0.42 1.38v0 15.45c0 0.633-0.14 1.09-0.42 1.37-0.287 0.287-0.747 0.43-1.38 0.43zM127.7 36v0h9.95v-10.05h-0.5v9.55h-9.45c-3.367 0-5.627-0.45-6.78-1.35-1.147-0.9-1.72-2.433-1.72-4.6v0-14c0-2.2 0.517-3.76 1.55-4.68 1.033-0.913 3.017-1.37 5.95-1.37v0h8.65v-0.5h-8.65c-3.2 0-5.333 0.5-6.4 1.5-1.067 1-1.6 2.683-1.6 5.05v0 14c0 1.167 0.123 2.157 0.37 2.97 0.253 0.82 0.713 1.487 1.38 2 0.667 0.52 1.583 0.897 2.75 1.13 1.167 0.233 2.667 0.35 4.5 0.35zM176.45 40.5v0h-25.45c-0.633 0-1.09-0.143-1.37-0.43-0.287-0.28-0.43-0.737-0.43-1.37v0-32.4c0-0.633 0.143-1.093 0.43-1.38 0.28-0.28 0.737-0.42 1.37-0.42v0h7.75c0.633 0 1.093 0.14 1.38 0.42 0.28 0.287 0.42 0.747 0.42 1.38v0 24.75h6.85v-8.1c0-0.633 0.14-1.093 0.42-1.38 0.287-0.28 0.747-0.42 1.38-0.42v0h7.25c0.633 0 1.09 0.14 1.37 0.42 0.287 0.287 0.43 0.747 0.43 1.38v0 15.75c0 0.633-0.143 1.09-0.43 1.37-0.28 0.287-0.737 0.43-1.37 0.43zM154.65 9v27h18.4v-10.35h-0.5v9.85h-17.4v-26.5zM208.95 40.5v0h-23.2c-0.633 0-1.09-0.143-1.37-0.43-0.287-0.28-0.43-0.737-0.43-1.37v0-32.4c0-0.633 0.143-1.093 0.43-1.38 0.28-0.28 0.737-0.42 1.37-0.42v0h23.2c0.633 0 1.09 0.14 1.37 0.42 0.287 0.287 0.43 0.747 0.43 1.38v0 5.85c0 0.633-0.143 1.09-0.43 1.37-0.28 0.287-0.737 0.43-1.37 0.43v0h-13.8v3.85h9.75c0.633 0 1.093 0.14 1.38 0.42 0.28 0.287 0.42 0.747 0.42 1.38v0 5.35c0 0.633-0.14 1.09-0.42 1.37-0.287 0.287-0.747 0.43-1.38 0.43v0h-9.75v4.3h13.8c0.633 0 1.09 0.14 1.37 0.42 0.287 0.287 0.43 0.747 0.43 1.38v0 5.85c0 0.633-0.143 1.09-0.43 1.37-0.28 0.287-0.737 0.43-1.37 0.43zM206.25 36v-0.5h-16.35v-12.95h12.3v-0.5h-12.3v-12.55h16.35v-0.5h-16.85v27z" fill="#fdbb30" fill-rule="nonzero" stroke="none" stroke-width="1" stroke-linecap="butt" stroke-linejoin="miter" stroke-miterlimit="10" stroke-dasharray="" stroke-dashoffset="0" font-family="none" font-weight="none" font-size="none" text-anchor="none" style="mix-blend-mode: normal" data-fill-palette-color="primary" opacity="1"></path></g></svg></g></svg></g></svg></g></svg></g><g transform="matrix(1,0,0,1,0,0.38636179450071495)"><svg viewBox="0 0 145.01703453300243 154.54471780028942" height="154.54471780028942" width="145.01703453300243"><g><svg xmlns="http://www.w3.org/2000/svg" xmlns:xlink="http://www.w3.org/1999/xlink" version="1.2" baseProfile="tiny" x="0" y="0" viewBox="3.0820000171661377 0 93.83499908447266 100" xml:space="preserve" height="154.54471780028942" width="145.01703453300243" class="icon-icon-0" data-fill-palette-color="accent" id="icon-0"><path d="M93.35 0v2.587c0 1.559-1.157 2.823-2.587 2.823h-4.956c-1.429 0-2.588-1.264-2.588-2.823V0H16.866v2.587c0 1.559-1.158 2.823-2.588 2.823H9.322c-1.429 0-2.587-1.264-2.587-2.823V0H3.082v100h3.659c-0.001-0.021-0.006-0.039-0.006-0.059v-2.694c0-1.56 1.158-2.824 2.587-2.824h4.956c1.43 0 2.588 1.265 2.588 2.824v2.694c0 0.02-0.005 0.038-0.006 0.059h66.364c0-0.021-0.006-0.039-0.006-0.059v-2.694c0-1.56 1.159-2.824 2.588-2.824h4.956c1.43 0 2.587 1.265 2.587 2.824v2.694c0 0.02-0.005 0.038-0.005 0.059h3.573V0H93.35zM16.866 86.032c0 1.559-1.158 2.823-2.588 2.823H9.322c-1.429 0-2.587-1.265-2.587-2.823v-2.693c0-1.56 1.158-2.824 2.587-2.824h4.956c1.43 0 2.588 1.265 2.588 2.824V86.032zM16.866 72.124c0 1.561-1.158 2.824-2.588 2.824H9.322c-1.429 0-2.587-1.264-2.587-2.824v-2.693c0-1.559 1.158-2.823 2.587-2.823h4.956c1.43 0 2.588 1.265 2.588 2.823V72.124zM16.866 58.217c0 1.561-1.158 2.824-2.588 2.824H9.322c-1.429 0-2.587-1.264-2.587-2.824v-2.694c0-1.559 1.158-2.823 2.587-2.823h4.956c1.43 0 2.588 1.265 2.588 2.823V58.217zM16.866 44.31c0 1.559-1.158 2.823-2.588 2.823H9.322c-1.429 0-2.587-1.264-2.587-2.823v-2.694c0-1.56 1.158-2.824 2.587-2.824h4.956c1.43 0 2.588 1.264 2.588 2.824V44.31zM16.866 30.402c0 1.56-1.158 2.824-2.588 2.824H9.322c-1.429 0-2.587-1.264-2.587-2.824v-2.694c0-1.56 1.158-2.824 2.587-2.824h4.956c1.43 0 2.588 1.264 2.588 2.824V30.402zM16.866 16.495c0 1.559-1.158 2.823-2.588 2.823H9.322c-1.429 0-2.587-1.264-2.587-2.823v-2.694c0-1.56 1.158-2.824 2.587-2.824h4.956c1.43 0 2.588 1.264 2.588 2.824V16.495zM79.109 90.546c0 1.832-1.139 3.975-2.966 3.975H24.542c-1.828 0-3.651-2.143-3.651-3.975V56.081c0-1.831 1.823-2.656 3.651-2.656h51.602c1.827 0 2.966 0.825 2.966 2.656V90.546zM79.109 43.066c0 1.749-1.37 3.509-3.279 3.509H24.11c-1.909 0-3.22-1.76-3.22-3.509V8.229c0-1.749 1.311-2.75 3.22-2.75h51.72c1.909 0 3.279 1 3.279 2.75V43.066zM93.35 86.032c0 1.559-1.157 2.823-2.587 2.823h-4.956c-1.429 0-2.588-1.265-2.588-2.823v-2.693c0-1.56 1.159-2.824 2.588-2.824h4.956c1.43 0 2.587 1.265 2.587 2.824V86.032zM93.35 72.124c0 1.561-1.157 2.824-2.587 2.824h-4.956c-1.429 0-2.588-1.264-2.588-2.824v-2.693c0-1.559 1.159-2.823 2.588-2.823h4.956c1.43 0 2.587 1.265 2.587 2.823V72.124zM93.35 58.217c0 1.561-1.157 2.824-2.587 2.824h-4.956c-1.429 0-2.588-1.264-2.588-2.824v-2.694c0-1.559 1.159-2.823 2.588-2.823h4.956c1.43 0 2.587 1.265 2.587 2.823V58.217zM93.35 44.31c0 1.559-1.157 2.823-2.587 2.823h-4.956c-1.429 0-2.588-1.264-2.588-2.823v-2.694c0-1.56 1.159-2.824 2.588-2.824h4.956c1.43 0 2.587 1.264 2.587 2.824V44.31zM93.35 30.402c0 1.56-1.157 2.824-2.587 2.824h-4.956c-1.429 0-2.588-1.264-2.588-2.824v-2.694c0-1.56 1.159-2.824 2.588-2.824h4.956c1.43 0 2.587 1.264 2.587 2.824V30.402zM93.35 16.495c0 1.559-1.157 2.823-2.587 2.823h-4.956c-1.429 0-2.588-1.264-2.588-2.823v-2.694c0-1.56 1.159-2.824 2.588-2.824h4.956c1.43 0 2.587 1.264 2.587 2.824V16.495z" fill="#fdbb30" data-fill-palette-color="accent"></path></svg></g></svg></g></svg></g><defs></defs></svg><rect width="395.52" height="105.77515568629158" fill="none" stroke="none" visibility="hidden"></rect></g></svg></g></svg>